<svg xmlns="http://www.w3.org/2000/svg" viewBox="0 0 1188.8 603.4">
  <path d="M1100.5 88.4C1043.5 31.4 967.7 0 887.1 0c-52 0-102.1 13.1-146.3 37.7C696.5 13.1 646.5 0 594.4 0S492.3 13.1 448.1 37.7C403.8 13.1 353.8 0 301.7 0 221.1 0 145.4 31.4 88.4 88.4 31.4 145.4 0 221.1 0 301.7 0 382.3 31.4 458.1 88.4 515c57 57 132.8 88.4 213.3 88.4 52.1 0 102.1-13.1 146.4-37.7 44.3 24.6 94.3 37.7 146.4 37.7s102.1-13.1 146.4-37.7c44.3 24.6 94.3 37.7 146.4 37.7 80.6 0 156.4-31.4 213.3-88.4 57-57 88.4-132.8 88.4-213.3-.2-80.6-31.5-156.3-88.5-213.3zM556.6 28.2c-9.3 15.4-17.6 37-24.6 64.2-.9 3.6-1.9 7.4-2.7 11.1-4.6-5.2-9.3-10.3-14.2-15.2-3-3-6-5.8-9-8.6 15.1-23.9 32.3-41.4 50.5-51.5zm-32.1 449.2c-6.9 8.7-14.3 17-22.2 24.9-1.8 1.8-3.7 3.6-5.6 5.4-.6-1.1-1.1-2.1-1.7-3.2-28-54-43.5-126.1-43.5-202.8S467 152.9 495.1 98.9c.6-1.1 1.1-2.1 1.7-3.2 1.9 1.8 3.7 3.6 5.6 5.4 7.9 7.9 15.3 16.3 22.2 24.9-9.7 50.6-15 111.6-15 175.7-.1 64 5.2 125 14.9 175.7zm-7.2-441.2c-8.8 9-17.2 19.5-25 31.6-3.7-3-7.4-5.9-11.2-8.7 11.5-9 23.5-16.7 36.2-22.9zM301.7 585.4c-75.8 0-147-29.5-200.6-83.1C47.5 448.7 18 377.5 18 301.7s29.5-147 83.1-200.6C154.7 47.5 225.9 18 301.7 18c45.4 0 89.1 10.6 128.4 30.6-17.5 11.4-33.9 24.7-49 39.8-57 57-88.4 132.8-88.4 213.3 0 80.6 31.4 156.4 88.4 213.3 15.1 15.1 31.5 28.4 49 39.8-39.3 20-83 30.6-128.4 30.6zm146.4-40.5c-19.5-11.8-37.7-26-54.3-42.6-53.6-53.6-83.1-124.8-83.1-200.6s29.5-147 83.1-200.6c16.5-16.5 34.7-30.8 54.3-42.6 1.2.7 2.5 1.5 3.7 2.3-8.9 8.6-17.4 18.1-25.5 28.4-44.2 56.9-68.6 132.3-68.6 212.5 0 80.2 24.4 155.6 68.6 212.5 8 10.3 16.5 19.8 25.5 28.4-1.3.8-2.5 1.5-3.7 2.3zm-72.4-243.2c0-94.9 36.1-179 91.4-230.6 5.4 3.9 10.7 8 15.8 12.3-1.3 2.4-2.6 4.7-3.9 7.2-29.3 56.5-45.5 131.5-45.5 211.1s16.2 154.6 45.5 211.1l3.9 7.2c-5.2 4.3-10.4 8.4-15.8 12.3-55.3-51.6-91.4-135.7-91.4-230.6zm105.4 242.6c3.8-2.8 7.5-5.7 11.2-8.7 7.8 12.1 16.2 22.6 25 31.6-12.7-6.2-24.7-13.9-36.2-22.9zm24.9-20.6c3.1-2.8 6.1-5.7 9-8.6 4.9-4.9 9.7-10 14.2-15.2.9 3.8 1.8 7.5 2.7 11.1 7.1 27.2 15.3 48.8 24.6 64.2-18.1-10.1-35.3-27.5-50.5-51.5zm79.4 58.2c-10.9-8-24.3-30.6-36-75.5-2-7.8-3.9-16-5.7-24.5 17.7-23.7 31.7-49.6 41.6-77.1v177.1zm-46.2-124.8c-7.6-46-11.7-99.4-11.7-155.4s4.1-109.4 11.7-155.4c30.1 45.8 46.2 99.3 46.2 155.4s-16.1 109.6-46.2 155.4zm46.2-258.5c-10-27.5-23.9-53.4-41.6-77.1 1.8-8.5 3.7-16.7 5.7-24.5 11.6-44.9 25-67.5 36-75.5v177.1zM740.8 58.5c18 10.9 34.8 23.8 50.3 38.7-5.6 2.6-11.1 5.5-16.5 8.6-3.8-5.7-7.8-11.3-12-16.7-8-10.3-16.5-19.8-25.5-28.4 1.2-.7 2.4-1.4 3.7-2.2zm-64.4 324.6c9.3 24 22.7 46.3 39.8 66.1-6.2 19.9-13.7 38.5-22.4 55.3-.6 1.1-1.1 2.1-1.7 3.2-1.9-1.8-3.7-3.6-5.6-5.4-7.9-7.9-15.3-16.3-22.2-24.9 5.5-28.6 9.6-60.4 12.1-94.3zM664.3 126c6.9-8.7 14.3-17 22.2-24.9 1.8-1.8 3.7-3.6 5.6-5.4.6 1.1 1.1 2.1 1.7 3.2 8.7 16.8 16.2 35.4 22.4 55.3-17.2 19.8-30.6 42.2-39.8 66.1-2.5-33.8-6.6-65.7-12.1-94.3zm15 175.7c0-47.5 16-91.2 42.9-126.3 9.8 38.8 15 81.7 15 126.3 0 44.5-5.2 87.5-15 126.3-26.9-35.1-42.9-78.8-42.9-126.3zm72.4-64.1c-3.1-27.6-8.3-54-15.3-78.8 9.9-10.4 20.8-19.8 32.6-28 9.7 16.6 18 34.6 24.7 53.7-17.8 14.3-32.2 32.4-42 53.1zm47.9-34.4c8.8 30.7 13.6 63.9 13.6 98.5s-4.8 67.8-13.6 98.5c-27.2-24.2-44.3-59.4-44.3-98.5s17.1-74.3 44.3-98.5zm-47.9 162.6c9.8 20.7 24.3 38.8 42 53-6.7 19.1-15 37.2-24.7 53.7-11.8-8.2-22.7-17.6-32.6-28 7-24.6 12.1-51.1 15.3-78.7zm57.3 63.8c9.7 5.9 20 10.8 31 14.4-10 17.2-21.8 33.4-35.5 48.4-7-3-13.7-6.4-20.3-10.2 9.7-16.5 18-34.1 24.8-52.6zm78.1-53.9c40.9 0 74-33.2 74-74s-33.2-74-74-74h-.1c-4.9-19.5-11.7-38.3-20.3-56.3 6.7-1 13.5-1.6 20.4-1.6 72.7 0 131.9 59.2 131.9 131.9s-59.2 131.9-131.9 131.9c-6.9 0-13.8-.5-20.4-1.6 8.7-18 15.5-36.9 20.4-56.3zM873 355.9c-24-6.3-41.8-28.2-41.8-54.1s17.8-47.9 41.8-54.1c3.4 17.7 5.1 35.8 5.1 54.1s-1.7 36.4-5.1 54.1zm18-110c29.1 2 52.1 26.3 52.1 55.8s-23 53.8-52.1 55.8c3.4-18.2 5.1-36.9 5.1-55.8s-1.7-37.6-5.1-55.8zM869 230c-16.3 4.1-30.5 13.7-40.5 26.6-2.6-22.5-7.2-44.3-13.6-65.2 10.3-6.8 21.7-12.2 33.8-15.9 8.6 17.4 15.4 35.7 20.3 54.5zm-40.4 116.8c10 12.9 24.2 22.5 40.5 26.6-4.9 18.8-11.7 37.1-20.3 54.4-12.1-3.7-23.4-9.1-33.8-15.9 6.4-20.8 10.9-42.6 13.6-65.1zM858 448.7c9.4 1.9 19.2 2.8 29.1 2.8 82.6 0 149.9-67.2 149.9-149.9 0-82.6-67.2-149.9-149.9-149.9-10 0-19.7 1-29.1 2.8-10-17.8-21.9-34.8-35.5-50.5 20.3-6.7 42.1-10.3 64.6-10.3 114.6 0 207.8 93.2 207.8 207.8s-93.2 207.8-207.8 207.8c-22.5 0-44.3-3.6-64.6-10.3 13.7-15.5 25.5-32.4 35.5-50.3zm-18-289.3c-10.9 3.6-21.3 8.5-31 14.4-6.8-18.5-15.1-36.1-24.8-52.6 6.5-3.7 13.3-7.1 20.3-10.2 13.7 15 25.5 31.3 35.5 48.4zm-80.7-43.9c-10.2 7.1-19.9 15-29 23.8-5.9-17.4-12.7-33.7-20.5-48.7l-3.9-7.2c5.2-4.3 10.4-8.4 15.8-12.3 13.9 12.9 26.5 27.8 37.6 44.4zm-51.6-56.4c-3.8 2.8-7.5 5.7-11.2 8.7-7.8-12.1-16.2-22.6-25-31.6 12.7 6.2 24.8 13.9 36.2 22.9zm-24.9 20.6c-3.1 2.8-6.1 5.7-9 8.6-4.9 4.9-9.7 10-14.2 15.2-.9-3.8-1.8-7.5-2.7-11.1-7.1-27.2-15.3-48.8-24.6-64.2 18.2 10.1 35.4 27.6 50.5 51.5zm-79.4-58.2c10.9 8 24.3 30.6 36 75.5 2 7.8 3.9 16 5.7 24.5-17.7 23.7-31.7 49.6-41.7 77.1V21.5zm46.3 124.8c7.6 46 11.7 99.4 11.7 155.4s-4.1 109.4-11.7 155.4c-30.1-45.8-46.2-99.3-46.2-155.4s16.1-109.6 46.2-155.4zm-46.3 435.6V404.8c10 27.5 23.9 53.4 41.7 77.1-1.8 8.5-3.7 16.7-5.7 24.5-11.7 44.9-25 67.5-36 75.5zm28.8-6.7c9.3-15.4 17.6-37 24.6-64.2.9-3.6 1.9-7.4 2.7-11.1 4.6 5.2 9.3 10.3 14.2 15.2 3 3 6 5.8 9 8.6-15 24-32.2 41.4-50.5 51.5zm39.4-8c8.8-9 17.2-19.5 25-31.6 3.7 3 7.4 5.9 11.2 8.7-11.5 9-23.6 16.7-36.2 22.9zm50.1-34.9c-5.4-3.9-10.7-8-15.8-12.3 1.3-2.4 2.6-4.7 3.9-7.2 7.8-15 14.6-31.4 20.5-48.7 9.1 8.8 18.8 16.7 29 23.8-11.1 16.6-23.7 31.5-37.6 44.4zm19.1 12.6c-1.2-.7-2.5-1.5-3.7-2.3 8.9-8.6 17.4-18.1 25.5-28.4 4.2-5.4 8.2-10.9 12-16.7 5.4 3.1 10.9 6 16.5 8.6-15.5 15-32.4 27.9-50.3 38.8zm347-42.6c-53.6 53.6-124.8 83.1-200.6 83.1-45.4 0-89.1-10.6-128.4-30.6 17.5-11.4 33.9-24.7 49-39.8.4-.4.9-.9 1.3-1.4 24.7 9.1 51 13.8 78 13.8 60.3 0 117-23.5 159.7-66.1 42.6-42.6 66.1-99.3 66.1-159.7 0-60.3-23.5-117-66.1-159.7-42.6-42.6-99.3-66.1-159.7-66.1-27.1 0-53.4 4.7-78 13.8-.4-.4-.9-.9-1.3-1.4-15.1-15.1-31.5-28.4-49-39.8 39.3-20 83-30.6 128.4-30.6 75.8 0 147 29.5 200.6 83.1 53.6 53.6 83.1 124.8 83.1 200.6s-29.6 147.2-83.1 200.8z" fill="#fff"/>
</svg>